<svg height="512" viewBox="0 0 60 60" width="512" xmlns="http://www.w3.org/2000/svg"><g id="b"><path d="m37 4v7h-1c-1.1 0-2 .9-2 2v2h-1c-.55 0-1 .45-1 1v2c0 .55.45 1 1 1h.48l.52 10h-1l.92 17h.5l.47 9 .11 2.1c.03.56.29 1.05.68 1.39-.48.32-1.06.51-1.68.51h-28c-1.66 0-3-1.34-3-3v-52c0-1.66 1.34-3 3-3h28c1.66 0 3 1.34 3 3z" fill="#ffacad"/><path d="m30 1-2.861 3.052c-.567.605-1.359.948-2.189.948h-9.9c-.829 0-1.621-.343-2.189-.948l-2.861-3.052z" fill="#735eff"/><path d="m28 27.07c0 6.45-8 14.93-8 14.93s-8-8.48-8-14.93c0-4.46 3.58-8.07 8-8.07s8 3.61 8 8.07z" fill="#fff"/><circle cx="20" cy="27" fill="#f96a59" r="4"/><path d="m55.65 46-.45 9h-20.31l-.47-9z" fill="#ffacad"/><path d="m55.2 55-.1 2.1c-.06 1.06-.94 1.9-2 1.9h-16.1c-.5 0-.97-.19-1.32-.51-.39-.34-.65-.83-.68-1.39l-.11-2.1z" fill="#f96a59"/><path d="m57 19-.5 10h-22.5l-.52-10z" fill="#ffacad"/><rect fill="#f96a59" height="4" rx="1" width="26" x="32" y="15"/><path d="m57 29-.92 17h-22.16l-.92-17z" fill="#735eff"/><ellipse cx="45" cy="37.5" fill="#ffacad" rx="4" ry="4.5"/><path d="m35.68 58.49c-.48.32-1.06.51-1.68.51h-28c-1.66 0-3-1.34-3-3v-5c0 1.66 1.34 3 3 3h28c.29 0 .57-.04.83-.12l.06 1.12.11 2.1c.03.56.29 1.05.68 1.39z" fill="#735eff"/></g><g id="c"><g><path d="m34 .5h-28c-1.93 0-3.5 1.57-3.5 3.5v52c0 1.93 1.57 3.5 3.5 3.5h28c.573 0 1.129-.146 1.633-.41.394.259.864.41 1.367.41h16.1c1.327 0 2.425-1.042 2.499-2.375l.528-10.635c.242-.025.437-.215.45-.463l.923-17c.008-.137-.042-.271-.136-.371-.089-.093-.21-.144-.338-.151l.454-9.091c.591-.201 1.021-.756 1.021-1.414v-2c0-.827-.673-1.5-1.5-1.5h-.5v-1.5c0-1.378-1.121-2.5-2.5-2.5h-16.5v-6.5c0-1.93-1.57-3.5-3.5-3.5zm-5.155 1-2.072 2.21c-.47.502-1.135.79-1.823.79h-9.9c-.688 0-1.353-.288-1.823-.79l-2.072-2.21zm-25.345 2.5c0-1.378 1.121-2.5 2.5-2.5h3.783l2.714 2.894c.659.703 1.59 1.106 2.553 1.106h9.9c.965 0 1.896-.403 2.554-1.106l2.713-2.894h3.783c1.379 0 2.5 1.122 2.5 2.5v6.5h-.5c-1.379 0-2.5 1.122-2.5 2.5v1.5h-.5c-.827 0-1.5.673-1.5 1.5v2c0 .827.673 1.5 1.5 1.5h.006l.468 9h-.474c-.138 0-.269.057-.363.156-.094.1-.144.234-.136.371l.923 17c.014.265.233.473.499.473h.023l.363 6.956c-.104.013-.199.044-.309.044h-28c-1.379 0-2.5-1.122-2.5-2.5zm30.974 24.5-.468-9h22.468l-.45 9zm.472 18h20.179l-.397 8h-19.364zm-28.946 12c-1.379 0-2.5-1.122-2.5-2.5v-2.558c.636.651 1.52 1.058 2.5 1.058h28c.123 0 .243-.013.362-.026l.139 2.654c.024.439.169.841.387 1.19-.285.108-.58.182-.888.182zm47.1 0h-16.1c-.797 0-1.456-.627-1.501-1.426l-.082-1.574h19.262l-.078 1.572c-.045.8-.704 1.428-1.501 1.428zm2.504-13h-21.207l-.868-16h22.943zm1.896-29.5v2c0 .276-.225.5-.5.5h-24c-.275 0-.5-.224-.5-.5v-2c0-.276.225-.5.5-.5h24c.275 0 .5.224.5.5z"/><path d="m20 42.5c.138 0 .27-.057.363-.157.333-.353 8.136-8.702 8.137-15.278 0-4.723-3.813-8.565-8.5-8.565s-8.5 3.842-8.5 8.565c0 6.576 7.804 14.925 8.137 15.278.094.1.226.157.363.157zm0-23c4.136 0 7.5 3.394 7.5 7.565-.002 5.402-5.952 12.45-7.5 14.19-1.548-1.74-7.501-8.785-7.5-14.19 0-4.171 3.364-7.565 7.5-7.565z"/><path d="m24.5 27c0-2.481-2.019-4.5-4.5-4.5s-4.5 2.019-4.5 4.5 2.019 4.5 4.5 4.5 4.5-2.019 4.5-4.5zm-8 0c0-1.93 1.57-3.5 3.5-3.5s3.5 1.57 3.5 3.5-1.57 3.5-3.5 3.5-3.5-1.57-3.5-3.5z"/><circle cx="20" cy="36" r="1"/><path d="m45 42.5c2.481 0 4.5-2.243 4.5-5s-2.019-5-4.5-5-4.5 2.243-4.5 5 2.019 5 4.5 5zm3.5-5c0 2.206-1.57 4-3.5 4-.084 0-.162-.022-.244-.028.411-.735.744-1.656.744-2.912 0-1.896-1.032-3.351-1.786-4.413l-.185-.264c.449-.24.944-.383 1.471-.383 1.93 0 3.5 1.794 3.5 4zm-5.772-3.017c.057.081.11.159.171.243.714 1.005 1.602 2.257 1.602 3.834 0 1.182-.346 1.986-.765 2.659-1.305-.582-2.235-2.025-2.235-3.719 0-1.21.483-2.283 1.228-3.017z"/></g></g></svg>